<svg xmlns="http://www.w3.org/2000/svg" viewBox="0 0 67.59 61.96"><defs><style>.cls-1{fill:#dd6665;}</style></defs><g id="Layer_2" data-name="Layer 2"><g id="Layer_1-2" data-name="Layer 1"><g id="Layer_2-2" data-name="Layer 2"><g id="Layer_1-2-2" data-name="Layer 1-2"><path class="cls-1" d="M33.63,61.92H7.39A7.6,7.6,0,0,1,0,54.6V8.51A8.18,8.18,0,0,1,2.54,2.08,8,8,0,0,1,8.22,0H59.37a7.86,7.86,0,0,1,7.78,5.2,11.08,11.08,0,0,1,.44,3.39V53.69A8,8,0,0,1,60,62h-.64c-8.58-.08-17.17,0-25.75,0Zm.13-47.73H6.68c-2.5,0-2.5,0-2.5,2.44V53.1c0,3.19,1.38,4.67,4.7,4.66,16.77-.07,33.55,0,50.33,0,3,0,4.17-1.17,4.17-4.08V15.53c0-1.07-.29-1.33-1.33-1.33Zm0-4.31H62.68a.65.65,0,0,0,.76-.69c.27-3-1.14-5-4.37-5-16.94.06-33.88,0-50.81,0-2.56,0-4,1.47-4.14,4.07-.06,1.6-.06,1.61,1.52,1.61Z"/><path class="cls-1" d="M31.77,47.86a2.22,2.22,0,0,1-2.22-2.21,2.1,2.1,0,0,1,.08-.56c.86-3.63,1.6-7.3,2.58-10.9.6-2.23.83-4.54,1.57-6.74.54-1.62,1.48-2.36,2.72-2s1.67,1.51,1.33,3q-2,8.61-3.91,17.22C33.59,47.14,32.88,47.84,31.77,47.86Z"/><path class="cls-1" d="M41,41.68c-.06-1.49,1.07-2.18,1.81-3.06.4-.49.74-1,1.18-1.48s.26-.76-.08-1.14c-.79-.89-1.55-1.81-2.34-2.69a2.39,2.39,0,0,1,0-3.06,1.8,1.8,0,0,1,2.54-.3l.21.19a30.74,30.74,0,0,1,3.41,3.8c2,2.68,2,2.75,0,5.4a43.59,43.59,0,0,1-3.39,3.83,1.6,1.6,0,0,1-2.08.31C41.48,43.07,40.83,42.53,41,41.68Z"/><path class="cls-1" d="M18.41,36.7c-.14-1.42,1.05-2,1.7-2.94a29,29,0,0,1,3-3.37,2.1,2.1,0,0,1,2.95-.33l.05,0a2.62,2.62,0,0,1,0,3.3c-.68.83-1.4,1.63-2.15,2.39a1,1,0,0,0-.26,1.39,1.1,1.1,0,0,0,.21.22c.71.81,1.39,1.64,2.1,2.44a2.39,2.39,0,0,1,.12,3.24,1.9,1.9,0,0,1-2.69.14,1.2,1.2,0,0,1-.26-.29c-1.55-1.64-2.95-3.42-4.41-5.15A1.48,1.48,0,0,1,18.41,36.7Z"/></g></g></g></g></svg>